<?xml version="1.0" standalone="no"?>
<!DOCTYPE svg PUBLIC "-//W3C//DTD SVG 20010904//EN" "http://www.w3.org/TR/2001/REC-SVG-20010904/DTD/svg10.dtd">
<!-- Created using Krita: https://krita.org -->
<svg xmlns="http://www.w3.org/2000/svg" 
    xmlns:xlink="http://www.w3.org/1999/xlink"
    xmlns:krita="http://krita.org/namespaces/svg/krita"
    xmlns:sodipodi="http://sodipodi.sourceforge.net/DTD/sodipodi-0.dtd"
    width="166.08pt"
    height="219.36pt"
    viewBox="0 0 166.08 219.36">
<defs/>
<path id="shape0" transform="matrix(0.559316347223775 0 0 0.545040490568325 48.8703599719842 105.183000541473)" fill="#302f42" stroke-opacity="0" stroke="#000000" stroke-width="0" stroke-linecap="square" stroke-linejoin="bevel" d="M159.913 48.8044C160.237 49.6844 160.381 50.2328 160.725 50.9943C162.748 56.2569 164.904 61.2184 166.27 66.3887C167.1 69.5314 166.709 72.9964 166.463 76.8528C161.895 84.1988 155.636 86.7622 147.908 86.3515C146.273 84.3749 144.365 82.5624 143.057 80.3891C139.955 75.234 137.137 69.9078 133.53 64.9113C134.956 76.2725 128.858 85.6307 126.587 95.7946C124.063 107.097 120.991 118.287 117.804 129.424C116.888 132.624 114.748 135.474 112.607 138.847C105.236 142.443 98.7152 141.574 92.3955 137.832C91.6748 135.106 90.3752 132.386 90.3486 129.653C90.2845 123.056 91.2519 116.437 90.9961 109.858C90.672 101.524 92.9886 94.1584 97.1431 87.13C100.705 81.1046 99.543 78.812 92.5836 79.1606C79.7731 79.8024 67.9829 75.9664 56.1794 71.8484C47.5584 68.8407 38.9375 65.8076 30.2054 63.1515C22.4035 60.7783 15.4651 57.1488 9.37377 50.8835C8.45204 50.0489 7.92528 49.5975 7.39855 49.146C6.50905 47.9484 5.69847 46.6814 4.71721 45.5643C-1.52788 38.4553 -1.17503 30.8522 3.44945 22.5859C8.90654 23.5876 13.7969 25.1812 18.7988 26.2546C31.704 29.0241 44.6356 31.6852 57.6069 34.1223C61.5885 34.8703 64.217 32.6675 66.555 29.2252C69.3883 25.0537 73.0325 21.368 76.6678 17.8228C81.2647 13.3398 86.2063 9.21027 91.404 4.98328C95.859 5.75568 99.8833 6.73498 103.964 7.13879C114.075 8.13916 123.134 4.69739 131.831 0C141.664 1.83319 147.221 7.66009 149.786 17.4004C152.551 27.9027 156.371 38.1272 159.913 48.8044M125.696 47.3298C125.447 44.8608 125.235 42.3876 124.943 39.9238C124.453 35.7924 122.503 34.5836 118.913 36.556C115.92 38.2002 113.194 40.3298 110.065 42.4363C113.211 44.6468 115.898 46.5346 118.907 49.0184C121.733 51.7218 124.558 54.4251 128.497 58.1935C127.299 53.9211 126.487 51.0262 125.696 47.3298Z" sodipodi:nodetypes="ccccccccccccccccccccccccccccccccccccc"/><path id="shape1" transform="matrix(0.559316347223775 0 0 0.545040490568325 48.7722228402548 24.7861804940005)" fill="#403e57" stroke-opacity="0" stroke="#000000" stroke-width="0" stroke-linecap="square" stroke-linejoin="bevel" d="M0 78.6216C2.62506 63.5674 5.47461 48.5474 7.77734 33.444C8.87421 26.2498 12.721 22.7389 19.5358 21.2765C24.189 20.278 29.7249 21.1663 32.5815 15.4154C33.3569 13.8544 36.1675 13.3043 38.4729 12.0585C38.8331 13.8243 39.1009 15.1375 39.4087 16.647C40.0736 16.2319 40.7468 16.0534 40.8394 15.7157C41.5829 13.0039 42.6702 10.2807 42.7838 7.52522C42.9811 2.74555 45.0657 0.946053 49.8003 0.938881C55.2748 0.930611 60.7474 0.0251241 66.223 3.90917e-05C67.9373 -0.00783491 70.717 1.17497 71.2122 2.4896C75.7856 14.6314 87.0144 15.0616 97.0262 17.8267C99.5706 18.5295 102.518 19.529 104.183 21.3796C116.419 34.9825 128.42 48.7973 140.399 62.6289C145.612 68.6472 146.165 75.4428 142.709 83.219C136.939 87.4444 131.579 91.214 126.042 94.7033C122.289 97.0685 118.288 99.0398 113.66 101.595C116.374 102.557 117.973 103.124 120.947 104.179C117.91 104.6 116.345 104.817 113.24 105.248C116.085 107.142 117.771 108.265 119.457 109.388C119.16 109.731 118.863 110.073 118.566 110.416C116.473 110.416 114.379 110.416 111.991 110.195C110.226 109.791 108.756 109.607 107.048 109.219C105.995 108.843 105.18 108.672 104.491 108.186C102.557 104.088 100.499 100.306 98.3352 96.1891C96.321 93.38 97.8842 92.1259 99.8284 90.7371C107.32 85.3858 114.735 79.9288 123.018 73.9012C116.331 70.4294 110.522 67.4136 104.476 64.2081C101.602 62.5169 98.966 61.0154 95.7064 59.1585C95.4125 61.9063 95.2074 63.8238 94.7206 65.9181C92.0048 67.8349 89.4646 69.446 87.1582 71.3415C81.7838 75.7583 77.5632 75.2014 73.0759 69.9288C71.0004 67.4902 68.385 64.9815 65.4899 63.8664C55.7472 60.114 43.0072 68.6491 42.0217 79.0718C41.7917 81.5044 41.143 83.8976 40.6934 86.2748C36.7602 85.7393 33.1575 85.2488 29.3394 84.5159C26.562 80.7326 23.293 81.5928 19.6132 82.6554C12.8391 81.2127 6.41956 79.9172 0 78.6216Z" sodipodi:nodetypes="cccccccccccccccccccccccccccccccccccccc"/><path id="shape2" transform="matrix(0.559316347223775 0 0 0.545040490568325 72.8324995034195 70.3449198767638)" fill="#01ae81" stroke-opacity="0" stroke="#000000" stroke-width="0" stroke-linecap="square" stroke-linejoin="bevel" d="M69.2687 26.8281C71.3621 26.8281 73.4555 26.8281 75.5489 26.8281C75.846 26.4854 76.143 26.1428 76.44 25.8001C74.7537 24.6771 73.0673 23.5541 70.2227 21.6599C73.3273 21.2294 74.8925 21.0124 77.9292 20.5913C74.9556 19.5366 73.357 18.9695 70.643 18.0069C75.271 15.452 79.2721 13.4807 83.0249 11.1155C88.5614 7.62622 93.9213 3.85657 99.634 0C114.369 18.55 111.085 45.5636 92.4752 60.9189C91.4532 61.7622 90.3828 62.5469 89.1622 63.6387C80.2923 68.6157 71.2335 72.0575 61.1227 71.0571C57.0414 70.6533 53.0171 69.674 48.3211 68.6693C41.9128 64.5163 35.7656 61.1047 30.5044 56.6473C25.9344 52.7756 21.1769 50.4926 15.2978 50.197C7.891 49.8246 2.06123 44.9564 0.408607 37.7201C-0.34359 34.4264 -0.532036 31.81 4.15534 30.7438C6.45634 30.2204 8.66792 27.1841 9.93076 24.768C11.4155 21.9274 8.74006 20.431 7.0124 19.1238C19.1943 21.7239 30.9279 24.3573 42.7984 27.3479C45.8818 32.7466 47.6994 33.0568 56.4132 30.0078C62.9545 31.4744 69.1016 32.8707 75.3627 34.2929C76.4899 30.781 75.8735 28.8924 72.6565 28.2689C71.4087 28.027 70.1986 27.5903 69.045 27.1383C69.1187 27.0342 69.2687 26.8281 69.2687 26.8281Z" sodipodi:nodetypes="cccccccccccccccccccccccc"/><path id="shape3" transform="matrix(0.559316347223775 0 0 0.545040490568325 50.8728506014185 78.3458771856931)" fill="#403e57" stroke-opacity="0" stroke="#000000" stroke-width="0" stroke-linecap="square" stroke-linejoin="bevel" d="M45.8257 4.47736C48.0016 5.7514 50.6771 7.2478 49.1924 10.0884C47.9295 12.5045 45.7179 15.5408 43.4169 16.0642C38.7296 17.1304 38.918 19.7468 39.6702 23.0405C41.3228 30.2768 47.1526 35.145 54.5594 35.5174C60.4384 35.813 65.196 38.096 69.766 41.9678C75.0272 46.4252 81.1744 49.8367 87.1779 53.9348C82.6261 58.449 77.6845 62.5786 73.0876 67.0615C69.4522 70.6068 65.808 74.2925 62.9748 78.4639C60.6368 81.9063 58.0083 84.1091 54.0266 83.3611C41.0553 80.924 28.1237 78.2629 15.2186 75.4933C10.2166 74.42 5.32629 72.8264 0 71.4688C0.515046 68.0437 1.41519 64.6198 2.49619 60.6069C2.81729 59.4842 2.95755 58.9504 3.09781 58.4167C4.13965 55.3416 5.18146 52.2664 6.40482 48.524C6.88187 46.7339 7.17737 45.6109 7.71939 44.2274C11.4505 33.1515 15.0345 22.3665 18.3474 11.4988C19.1384 8.90387 19.0251 6.03314 19.5056 3.00769C20.613 1.77496 21.5425 0.823792 22.8546 0C30.7717 1.57141 38.3061 3.01538 45.8496 4.46887C45.8587 4.47833 45.8257 4.47736 45.8257 4.47736Z" sodipodi:nodetypes="ccccccccccccccccccccc"/><path id="shape4" transform="matrix(0.559316347223775 0 0 0.545040490568325 127.536217608716 156.672893384348)" fill="#333144" stroke-opacity="0" stroke="#000000" stroke-width="0" stroke-linecap="square" stroke-linejoin="bevel" d="M33.2782 0.615051C40.1781 2.41394 43.8621 7.88141 46.6715 13.5955C49.2804 18.9019 52.9389 22.4305 58.2236 24.6097C59.1394 24.9874 60.4318 25.2929 60.7967 26.0134C62.0621 28.5122 64.1236 31.379 63.709 33.7211C63.3578 35.7052 59.9157 38.6688 57.9833 38.5647C51.8055 38.232 45.3009 37.6542 39.6384 35.3847C27.9631 30.7053 16.7579 24.8557 5.34533 19.5173C-1.01469 16.5424 -1.35658 15.4169 2.51369 9.71637C4.65746 6.55884 6.78106 3.3877 9.47417 0C13.3617 2.52551 16.2988 6.15027 20.0969 7.84045C28.1085 11.4057 33.2517 8.22101 33.2782 0.615051Z" sodipodi:nodetypes="cccccccccccc"/><path id="shape5" transform="matrix(0.559316347223775 0 0 0.545040490568325 88.9595570947859 184.312667374613)" fill="#313043" stroke-opacity="0" stroke="#000000" stroke-width="0" stroke-linecap="square" stroke-linejoin="bevel" d="M38.025 15.1321C38.4877 21.6707 38.8365 28.2202 39.465 34.7427C39.746 37.6597 40.3952 40.5814 41.2486 43.3881C41.7666 45.0914 43.0018 46.5746 43.902 48.164C45.8285 51.5655 45.8825 54.835 43.0169 57.7602C39.9503 60.8905 36.3517 60.2745 33.5535 57.9061C29.4162 54.4041 25.0774 50.736 22.1715 46.2634C15.0317 35.2746 8.63576 23.801 1.99202 12.4921C-1.19188 7.07252 -0.794966 6.09425 4.90471 3.80952C7.8308 2.63661 10.6387 1.13465 13.6233 0.157665C14.9408 -0.273609 16.5646 0.230602 18.1339 1.05531C17.7708 8.25318 20.2507 13.2385 25.995 16.2442C27.7746 17.1753 30.3114 18.0052 31.9871 17.4166C33.719 16.8084 34.8253 14.4188 36.2512 12.7547C36.6862 13.3378 37.3556 14.2349 38.025 15.1321Z" sodipodi:nodetypes="ccccccccccccccc"/><path id="shape6" transform="matrix(0.559316347223775 0 0 0.545040490568325 8.15458109696515 58.0058562947321)" fill="#01ae81" stroke-opacity="0" stroke="#000000" stroke-width="0" stroke-linecap="square" stroke-linejoin="bevel" d="M43.3776 12.3623C46.1768 12.8445 48.5663 13.296 51.3296 13.6986C58.4129 15.0071 65.1224 16.3644 72.226 17.6972C79.0397 18.9681 85.4592 20.2637 92.1014 21.9357C91.8416 22.5281 91.3593 22.7443 90.4553 22.8867C78.4968 20.5915 66.9832 18.2365 55.4117 16.212C50.5614 15.3635 45.5885 15.2153 40.4336 15.033C40.0509 17.7714 39.9057 20.2253 39.6884 22.8083C39.6162 22.9372 39.4476 23.1799 39.4476 23.1799C31.1576 23.7122 22.8675 24.2444 14.1289 24.8408C11.8618 24.7899 10.0341 24.7548 8.22662 24.5449C2.44943 23.874 -0.453038 19.9683 0.0575054 14.2379C1.2698 0.630744 5.2357 -3.1361 18.6396 2.56385C26.6797 5.98292 34.854 9.08643 43.3776 12.3623Z" sodipodi:nodetypes="cccccccccccccc"/><path id="shape7" transform="matrix(0.559316347223775 0 0 0.545040490568325 66.2813496807023 0.845326397227314)" fill="#333144" stroke-opacity="0" stroke="#000000" stroke-width="0" stroke-linecap="square" stroke-linejoin="bevel" d="M14.496 43.1794C10.2477 38.3818 5.3918 33.9834 1.90889 28.6829C-2.19984 22.43 0.693405 13.3493 7.06392 9.12732C7.88265 8.58471 8.64864 7.9245 9.32463 7.21045C16.8436 -0.731812 26.313 -1.75153 35.3804 2.38589C43.2564 5.97964 47.4577 13.4328 46.7616 23.5665C46.2009 27.4937 45.7151 30.5755 45.2294 33.6573C43.6859 29.9908 43.4879 26.4741 42.6264 23.1283C41.9702 20.5801 40.7265 16.3636 39.3008 16.171C34.8418 15.5685 28.1643 14.7654 26.003 17.2372C21.4961 22.3918 15.9951 23.2524 10.2136 24.7394C11.6664 30.9951 13.0812 37.0872 14.496 43.1794Z" sodipodi:nodetypes="cccccccccccc"/><path id="shape8" transform="matrix(0.559316347223775 0 0 0.545040490568325 71.4957123825315 7.86358179775421)" fill="#fcb5b5" stroke-opacity="0" stroke="#000000" stroke-width="0" stroke-linecap="square" stroke-linejoin="bevel" d="M4.64655 27.7389C2.86762 21.5382 1.45279 15.446 0 9.19033C5.78152 7.70336 11.2825 6.84268 15.7895 1.68814C17.9507 -0.783696 24.6283 0.0194035 29.0872 0.621913C30.5129 0.81457 31.7566 5.03106 32.4128 7.57925C33.2744 10.925 33.4723 14.4417 35.0158 18.1082C35.5016 15.0264 35.9873 11.9446 36.5866 8.46462C38.8159 16.0427 36.8817 23.0349 30.4875 28.0921C24.1412 33.1113 16.8687 33.6335 9.47122 30.0162C7.98599 29.2899 6.49762 28.5702 4.64655 27.7389Z" sodipodi:nodetypes="cccccccccc"/><path id="shape9" transform="matrix(0.559316347223775 0 0 0.545040490568325 99.1505352584098 180.528361290626)" fill="#fcb5b5" stroke-opacity="0" stroke="#000000" stroke-width="0" stroke-linecap="square" stroke-linejoin="bevel" d="M19.8729 21.6479C19.1352 21.1781 18.4658 20.2809 18.0308 19.6979C16.6049 21.3619 15.4986 23.7515 13.7667 24.3598C12.091 24.9484 9.5542 24.1185 7.77453 23.1873C2.03033 20.1817 -0.44965 15.1964 0.066524 8.31671C0.85519 5.3952 1.57544 2.90057 2.39767 0C8.81942 3.33557 15.3403 4.20532 22.5276 0.895081C21.918 7.62 20.9296 14.4203 19.8729 21.6479Z" sodipodi:nodetypes="cccccccc"/><path id="shape10" transform="matrix(0.559316347223775 0 0 0.545040490568325 131.628381697286 147.275202778361)" fill="#fcb5b5" stroke-opacity="0" stroke="#000000" stroke-width="0" stroke-linecap="square" stroke-linejoin="bevel" d="M25.9489 17.8989C25.9353 25.4632 20.7921 28.6479 12.7805 25.0826C8.98248 23.3925 6.04538 19.7677 2.37775 16.9826C1.37656 14.5773 0.715912 12.2089 0 9.48218C7.67282 9.53455 13.9323 6.97113 18.3798 0C20.7746 5.23023 22.8845 10.6216 24.9849 16.7126C25.3238 17.5954 25.6722 17.7786 26.0206 17.9617C26.0206 17.9617 25.936 17.9405 25.9489 17.8989Z" sodipodi:nodetypes="cccccccc"/><path id="shape11" transform="matrix(0.559316347223775 0 0 0.545040490568325 0.457338558297519 131.958081393173)" fill="#cccccc" stroke-opacity="0" stroke="#000000" stroke-width="0" stroke-linecap="square" stroke-linejoin="bevel" d="M93.4511 0.010559C94.4828 0.472534 95.0095 0.924011 95.6267 1.62756C64.4302 1.93732 33.1433 1.99756 1.85635 2.03388C1.23773 2.03461 0.61879 1.75476 0 1.60577C0.006577 1.0705 0.013169 0.535278 0.019761 0C30.9952 0 61.9707 0 93.4511 0.010559Z" sodipodi:nodetypes="cccccc"/><path id="shape12" transform="matrix(0.559316347223775 0 0 0.545040490568325 145.594357634783 156.556066324459)" fill="#333144" stroke-opacity="0" stroke="#000000" stroke-width="0" stroke-linecap="square" stroke-linejoin="bevel" d="M1.1214 0.606924C0.702454 0.750723 0.354035 0.567556 0 0.0482077C0.393555 -0.0986433 0.792725 0.0906877 1.1214 0.606924Z" sodipodi:nodetypes="ccc"/><path id="shape13" transform="matrix(0.559316347223775 0 0 0.545040490568325 110.431456074821 124.603317557405)" fill="#fcfcfd" stroke-opacity="0" stroke="#000000" stroke-width="0" stroke-linecap="square" stroke-linejoin="bevel" d="M8.52054 12.7914C5.83343 10.9036 3.14636 9.01583 0 6.80538C3.12936 4.69887 5.85559 2.56923 8.84848 0.925068C12.4385 -1.04735 14.388 0.161396 14.8777 4.29286C15.1698 6.75667 15.3825 9.22988 15.1824 12.1419C12.6628 12.6538 10.5917 12.7226 8.52054 12.7914Z" sodipodi:nodetypes="cccccc"/><path id="shape14" transform="matrix(0.559316347223775 0 0 0.545040490568325 115.28700097877 131.439554397267)" fill="#cccccc" stroke-opacity="0" stroke="#000000" stroke-width="0" stroke-linecap="square" stroke-linejoin="bevel" d="M0 0.546814C1.91046 0.179993 3.98157 0.111206 6.49088 0C7.74094 2.8526 8.55283 5.7475 9.7511 10.0199C5.81213 6.25153 2.98642 3.54822 0 0.546814Z" sodipodi:nodetypes="cccc"/><path id="shape15" transform="matrix(0.559316347223775 0 0 0.545040490568325 65.3026765347321 59.1050995491446)" fill="#01ae81" stroke-opacity="0" stroke="#000000" stroke-width="0" stroke-linecap="square" stroke-linejoin="bevel" d="M75.1591 1.43193C80.9675 4.4478 86.776 7.46355 93.4628 10.9353C85.1807 16.963 77.7649 22.42 70.2736 27.7713C68.3295 29.1601 66.7662 30.4142 68.4192 33.363C66.9842 34.2467 65.806 34.6561 64.2036 34.9795C60.3415 34.3291 56.8933 33.821 53.4676 33.191C35.8494 29.9508 18.2369 26.6794 0.498383 23.1564C0.249542 22.5268 0.124756 22.1597 0 21.7924C3.60272 22.2829 7.20547 22.7735 11.1386 23.3089C11.5883 20.9318 12.237 18.5386 12.467 16.1059C13.4524 5.68327 26.1925 -2.85182 35.9352 0.900618C38.8303 2.01567 41.4456 4.52434 43.5211 6.963C48.0084 12.2356 52.229 12.7925 57.6035 8.37565C59.9099 6.48015 62.4501 4.86912 65.5789 2.95634C69.2355 2.33324 72.1973 1.88261 75.1591 1.43193Z" sodipodi:nodetypes="ccccccccccccccc"/><path id="shape16" transform="matrix(0.559316347223775 0 0 0.545040490568325 52.2727120297836 69.3750734507652)" fill="#fcb5b5" stroke-opacity="0" stroke="#000000" stroke-width="0" stroke-linecap="square" stroke-linejoin="bevel" d="M23.0808 2.7075C23.421 3.31706 23.5458 3.68425 23.7642 4.71422C23.9012 5.63933 23.9445 5.90166 23.9319 6.39378C23.8403 6.94334 23.8669 7.25786 23.8479 7.92113C23.4383 9.46031 23.1364 10.6454 22.7082 11.991C22.5819 12.1514 22.4705 12.5442 22.2494 12.7309C21.688 13.5971 21.3477 14.2765 20.8362 15.1014C20.4331 15.6083 20.2011 15.97 19.9692 16.3316C19.0397 17.2828 18.1102 18.2339 16.6843 19.5063C15.4 20.7157 14.6122 21.604 13.4921 22.622C9.02332 22.1187 4.88681 21.4858 0 20.7382C2.21567 17.4614 3.73062 15.2209 5.43796 12.6443C6.81778 9.81456 8.00522 7.32078 9.36664 4.75285C9.73663 4.49321 9.85169 4.26659 10.1534 3.88402C10.9467 3.21312 11.4725 2.65703 11.9982 2.101C12.4806 1.88487 12.963 1.66875 13.5773 1.22337C17.0345 -0.215593 20.3035 -1.07576 23.0808 2.7075Z" sodipodi:nodetypes="ccccccccccccccccc"/><path id="shape17" transform="matrix(0.559316347223775 0 0 0.545040490568325 96.8162302152475 77.4715641087625)" fill="#fcb5b5" stroke-opacity="0" stroke="#000000" stroke-width="0" stroke-linecap="square" stroke-linejoin="bevel" d="M8.28485 1.3681C9.46301 0.958679 10.6412 0.549255 12.1806 0C14.6008 3.64233 16.6597 7.42444 18.3887 11.7482C17.9817 12.4766 17.9047 12.6633 17.5557 13.0059C15.9019 14.3951 14.5203 15.6285 13.1387 16.8619C4.81894 19.9813 3.00137 19.6712 0 13.8947C0.156189 11.8713 0.36731 10.5831 0.74823 9.14929C1.09528 8.74469 1.1586 8.46039 1.3479 7.97485C1.84534 7.27331 2.10287 6.74768 2.60352 6.10962C3.02328 5.69427 3.19998 5.39142 3.6076 5.00879C4.1203 4.73108 4.29376 4.46301 4.58768 4.04932C5.11948 3.8081 5.30206 3.55536 5.64923 3.13019C6.71783 2.48584 7.50134 1.92694 8.28485 1.3681Z" sodipodi:nodetypes="ccccccccccccc"/><path id="shape18" transform="matrix(0.559316347223775 0 0 0.545040490568325 102.09223990845 57.0299840221434)" fill="#f2f2f2" stroke-opacity="0" stroke="#000000" stroke-width="0" stroke-linecap="square" stroke-linejoin="bevel" d="M9.14516 5.0495C6.42135 5.68988 3.45956 6.1405 0.0846773 6.58698C-0.123299 4.66528 0.0817783 2.74774 0.375694 0C3.63531 1.85681 6.27126 3.35834 9.14516 5.0495Z" sodipodi:nodetypes="cccc"/><path id="shape19" transform="matrix(0.559316347223775 0 0 0.545040490568325 108.657630702857 84.4261194364297)" fill="#01ae81" stroke-opacity="0" stroke="#000000" stroke-width="0" stroke-linecap="square" stroke-linejoin="bevel" d="M0.217682 0C1.68729 0.184021 3.15689 0.367981 4.92181 0.7724C5.2171 0.99292 5.06702 1.1991 4.61615 1.29462C2.75308 1.05804 1.34088 0.725952 0 0.294739C0.071319 0.195618 0.217682 0 0.217682 0Z" sodipodi:nodetypes="ccccc"/><path id="shape20" transform="matrix(0.559316347223775 0 0 0.545040490568325 106.787604597121 84.0415057053323)" fill="#01ae81" stroke-opacity="0" stroke="#000000" stroke-width="0" stroke-linecap="square" stroke-linejoin="bevel" d="M0 0.795993C0.076934 0.609287 0.1539 0.422519 0.435394 0.0100429C1.45474 -0.0448271 2.2695 0.12601 3.32269 0.501254C3.5611 0.705661 3.41473 0.901279 2.93393 0.992954C1.63541 0.988376 0.817688 0.892185 0 0.795993Z" sodipodi:nodetypes="ccccc"/><path id="shape21" transform="matrix(0.559316347223775 0 0 0.545040490568325 64.0224858727058 76.3562618208521)" fill="#325760" stroke-opacity="0" stroke="#000000" stroke-width="0" stroke-linecap="square" stroke-linejoin="bevel" d="M59.2103 11.3413C58.9991 12.6294 58.788 13.9176 58.4949 15.5836C46.6793 13.3281 34.9457 10.6948 22.7638 8.09461C22.3155 8.12776 22.3485 8.12873 22.0248 7.86219C14.4675 5.77961 7.23373 3.96351 0 2.14741C0.340302 1.46797 0.680634 0.788522 1.67545 0.0101412C3.50675 -0.0253208 4.68359 0.0381562 5.82532 0.108712C5.79022 0.115793 5.76126 0.0503022 6.02844 0.318124C7.8172 0.757577 9.33878 0.929208 10.8254 1.10865C10.7904 1.11646 10.7612 1.05103 11.0401 1.32264C13.1649 1.76173 15.0107 1.92909 16.8243 2.1034C16.7921 2.1103 16.7672 2.04926 17.0008 2.35322C18.7747 2.80354 20.3152 2.94984 21.8239 3.10267C21.7923 3.10914 21.769 3.0489 21.9885 3.35475C34.5421 6.22083 46.8762 8.78108 59.2103 11.3413Z" sodipodi:nodetypes="ccccccccccccccc"/><path id="shape22" transform="matrix(0.559316347223775 0 0 0.545040490568325 104.385333055367 84.5502938385774)" fill="#325760" stroke-opacity="0" stroke="#000000" stroke-width="0" stroke-linecap="square" stroke-linejoin="bevel" d="M4.02289 0.018329C5.1127 -0.041302 5.93042 0.054889 7.15759 0.158588C8.97931 0.498126 10.3915 0.830219 12.1809 1.17086C13.7854 1.52736 14.9955 1.96407 16.2433 2.20595C19.4602 2.82942 20.0767 4.71804 18.9495 8.22994C12.6884 6.80776 6.54126 5.41146 0 3.94478C0.987518 2.64101 2.36914 1.40761 4.02289 0.018329Z" sodipodi:nodetypes="ccccccc"/><path id="shape23" transform="matrix(0.559316347223775 0 0 0.545040490568325 63.6299360789735 77.6059280355379)" fill="#01ae81" stroke-opacity="0" stroke="#000000" stroke-width="0" stroke-linecap="square" stroke-linejoin="bevel" d="M0.530636 0C7.93557 1.67072 15.1693 3.48682 22.7176 5.55994C15.4977 4.37299 7.96331 2.92902 0.0462606 1.3576C-0.104405 0.868591 0.127529 0.506958 0.530636 0Z" sodipodi:nodetypes="cccc"/><path id="shape24" transform="matrix(0.559316347223775 0 0 0.545040490568325 30.5507476770003 66.2384398241615)" fill="#325760" stroke-opacity="0" stroke="#000000" stroke-width="0" stroke-linecap="square" stroke-linejoin="bevel" d="M30.6624 15.7168C21.399 13.3445 12.1349 10.9752 2.87371 8.59451C2.08218 8.39108 1.31033 8.11117 0.123958 7.72079C-0.136296 5.12081 0.00881415 2.66683 0.601406 0.00667803C1.31942 -0.043188 1.5065 0.182276 1.79638 0.815882C3.89816 1.64041 5.79647 2.2117 7.73172 2.59835C21.1599 5.28109 34.5959 7.92538 48.0293 10.5819C46.8419 13.0756 45.6544 15.5694 43.9192 18.3609C39.1351 17.678 34.8987 16.6974 30.6624 15.7168Z" sodipodi:nodetypes="ccccccccc"/><path id="shape25" transform="matrix(0.559316347223775 0 0 0.545040490568325 31.0200220081852 66.0871235188971)" fill="#403e57" stroke-opacity="0" stroke="#000000" stroke-width="0" stroke-linecap="square" stroke-linejoin="bevel" d="M0.771027 0.754761C0.667481 0.4599 0.480408 0.234436 0 0C4.7074 0.388428 9.6803 0.53656 14.5307 1.38513C26.1021 3.40961 37.6158 5.76459 49.5743 8.05981C49.4701 8.68951 48.9444 9.24561 47.8748 9.64294C31.8111 6.57446 16.291 3.66461 0.771027 0.754761Z" sodipodi:nodetypes="cccccc"/><path id="shape26" transform="matrix(0.559316347223775 0 0 0.545040490568325 65.6337979647695 72.0874928109434)" fill="#325760" stroke-opacity="0" stroke="#000000" stroke-width="0" stroke-linecap="square" stroke-linejoin="bevel" d="M63.6115 11.1604C63.2523 11.8052 62.4688 12.3641 61.0236 12.8566C59.4094 12.5327 58.4691 12.2107 57.5024 12.0276C38.37 8.40472 19.2345 4.79767 0.099579 1.18744C0.056244 0.925109 0.012909 0.66278 0 0C17.6449 2.86023 35.2574 6.13165 52.8756 9.37189C56.3013 10.0019 59.7495 10.51 63.6115 11.1604Z" sodipodi:nodetypes="ccccccc"/><path id="shape27" transform="matrix(0.559316347223775 0 0 0.545040490568325 43.3062574137523 75.0022816029793)" fill="#403e57" stroke-opacity="0" stroke="#000000" stroke-width="0" stroke-linecap="square" stroke-linejoin="bevel" d="M7.73666 0C12.0932 0.618103 16.3296 1.59875 20.9213 2.61774C19.7617 4.89655 18.2468 7.13702 16.0311 10.4138C20.9179 11.1614 25.0544 11.7943 29.5232 12.2976C30.2651 12.8752 31.0318 13.5839 31.0287 14.2892C30.9997 20.8279 21.4791 34.1094 15.132 36.4063C14.1913 36.7468 12.8108 36.6001 11.893 36.1501C7.88434 34.1844 3.97131 32.0238 0 29.9216C2.57657 19.9221 5.09653 10.1423 7.73666 0Z" sodipodi:nodetypes="ccccccccc"/><path id="shape28" transform="matrix(0.559316347223775 0 0 0.545040490568325 65.044406058923 73.7316292523609)" fill="#403e57" stroke-opacity="0" stroke="#000000" stroke-width="0" stroke-linecap="square" stroke-linejoin="bevel" d="M61.1637 10.9866C61.0985 11.3248 60.925 11.5928 59.9917 11.8358C56.5706 11.5281 53.801 11.1755 50.7889 10.5687C49.4012 10.1998 48.2561 10.0853 47.111 9.97076C47.1 10.3134 47.089 10.6561 47.078 10.9988C48.3481 10.9988 49.6182 10.9988 51.1606 11.2637C54.0103 12.0471 56.5877 12.5654 59.1652 13.0838C58.9076 13.6094 58.6501 14.1351 57.7534 14.7912C44.7234 12.5692 32.3326 10.2168 19.9419 7.86438C19.9419 7.86438 19.9652 7.92462 19.7193 7.66425C17.9624 7.22412 16.4513 7.04443 14.9402 6.86475C14.9402 6.86475 14.965 6.92578 14.7078 6.66089C12.6117 6.21954 10.7729 6.04303 8.93408 5.86652C8.93408 5.86652 8.96332 5.93195 8.74615 5.63751C6.99737 5.18402 5.46579 5.0249 3.93417 4.86578C3.93417 4.86578 3.96314 4.93127 3.76752 4.6452C2.38129 4.1853 1.19064 4.01135 0 3.83746C0.30191 2.65234 0.603821 1.46722 1.4252 0C21.6844 3.47412 41.424 7.23035 61.1637 10.9866M38.0789 7.88409C37.3311 7.94574 36.5834 8.00738 35.8356 8.06903C35.9318 8.38818 36.028 8.70728 36.1242 9.02643C36.9763 8.67548 37.8284 8.32446 38.0789 7.88409M43.8082 9.80634C43.9165 9.69818 44.0681 9.60626 44.1168 9.47589C44.1459 9.39807 44.0168 9.16577 43.9532 9.16357C43.282 9.14008 42.6095 9.14899 41.9374 9.14899C41.9416 9.33203 41.9457 9.51501 41.9498 9.69806C42.3838 9.76715 42.8177 9.8363 43.8082 9.80634Z" sodipodi:nodetypes="ccccccccccccccccccccccccccccc"/><path id="shape29" transform="matrix(0.559316347223775 0 0 0.545040490568325 65.6350961770932 72.8599438156332)" fill="#01ae81" stroke-opacity="0" stroke="#000000" stroke-width="0" stroke-linecap="square" stroke-linejoin="bevel" d="M60.3363 12.5104C40.3679 8.82965 20.6283 5.07343 0.476774 1.24524C-0.0237141 0.864075 -0.0502341 0.54956 0.0413799 0C19.2321 3.38043 38.3677 6.98749 57.5001 10.6104C58.4668 10.7935 59.4071 11.1155 60.7362 11.5248C61.0507 12.0164 60.8681 12.2692 60.3363 12.5104Z" sodipodi:nodetypes="cccccc"/><path id="shape30" transform="matrix(0.559316347223775 0 0 0.545040490568325 31.5554930215784 66.6831285655782)" fill="#01ae81" stroke-opacity="0" stroke="#000000" stroke-width="0" stroke-linecap="square" stroke-linejoin="bevel" d="M0 0C15.3337 2.57111 30.8537 5.48096 46.6499 8.66431C46.8919 9.20557 46.7769 9.43219 46.4069 9.69183C32.7995 7.1095 19.3636 4.46521 5.93533 1.78247C4.00009 1.39581 2.10178 0.824524 0 0Z" sodipodi:nodetypes="ccccc"/><path id="shape31" transform="matrix(0.559316347223775 0 0 0.545040490568325 64.9104251331659 75.9106270081481)" fill="#01ae81" stroke-opacity="0" stroke="#000000" stroke-width="0" stroke-linecap="square" stroke-linejoin="bevel" d="M0.113262 0C1.43019 0.013489 2.62083 0.187439 4.04216 0.640259C3.09605 0.855774 1.9192 0.792297 0.308971 0.640991C-0.124439 0.553223 -0.01305 0.1604 0.113262 0Z" sodipodi:nodetypes="cccc"/><path id="shape32" transform="matrix(0.559316347223775 0 0 0.545040490568325 76.3210279158605 78.1847337844916)" fill="#01ae81" stroke-opacity="0" stroke="#000000" stroke-width="0" stroke-linecap="square" stroke-linejoin="bevel" d="M0 0C12.1712 2.04657 24.562 4.39899 37.3521 6.79681C37.8019 7.15192 37.7386 7.43622 37.3915 7.84082C24.8877 5.42633 12.5536 2.86609 0 0Z" sodipodi:nodetypes="cccc"/><path id="shape33" transform="matrix(0.559316347223775 0 0 0.545040490568325 93.581955164886 79.6305681442324)" fill="#325760" stroke-opacity="0" stroke="#000000" stroke-width="0" stroke-linecap="square" stroke-linejoin="bevel" d="M0.00929655 0C2.77883 0.3526 5.54836 0.7052 8.73854 1.09259C8.98253 1.43024 8.80584 1.73309 8.38604 2.14844C5.56551 1.74249 2.98812 1.22412 0.17574 0.398071C-0.0592154 0.090454 0.00929655 0 0.00929655 0Z" sodipodi:nodetypes="ccccc"/><path id="shape34" transform="matrix(0.559316347223775 0 0 0.545040490568325 70.1973942776904 77.0635049768011)" fill="#01ae81" stroke-opacity="0" stroke="#000000" stroke-width="0" stroke-linecap="square" stroke-linejoin="bevel" d="M0 0.0250438C1.55988 -0.0700492 3.39868 0.106465 5.52698 0.540913C3.97061 0.631489 2.12476 0.464131 0 0.0250438Z" sodipodi:nodetypes="ccc"/><path id="shape35" transform="matrix(0.559316347223775 0 0 0.545040490568325 73.5313078726894 77.6178547981212)" fill="#01ae81" stroke-opacity="0" stroke="#000000" stroke-width="0" stroke-linecap="square" stroke-linejoin="bevel" d="M0 0.0385416C1.27756 -0.0857254 2.78867 0.0939616 4.57727 0.527617C3.31436 0.635161 1.77396 0.48886 0 0.0385416Z" sodipodi:nodetypes="ccc"/><path id="shape36" transform="matrix(0.559316347223775 0 0 0.545040490568325 67.394292590911 76.5117011238425)" fill="#01ae81" stroke-opacity="0" stroke="#000000" stroke-width="0" stroke-linecap="square" stroke-linejoin="bevel" d="M0 0.0329356C1.26444 -0.0757684 2.79602 0.0833506 4.57977 0.52903C3.31033 0.64402 1.78876 0.472389 0 0.0329356Z" sodipodi:nodetypes="ccc"/><path id="shape37" transform="matrix(0.559316347223775 0 0 0.545040490568325 91.375902731473 79.1660993542597)" fill="#325760" stroke-opacity="0" stroke="#000000" stroke-width="0" stroke-linecap="square" stroke-linejoin="bevel" d="M3.84762 0.985352C2.54019 1.02808 1.27008 1.02808 0 1.02808C0.011017 0.685364 0.022003 0.342652 0.03302 0C1.17813 0.114502 2.32321 0.229065 3.71091 0.597901C3.95349 0.852173 3.88498 0.942627 3.84762 0.985352Z" sodipodi:nodetypes="ccccc"/><path id="shape38" transform="matrix(0.559316347223775 0 0 0.545040490568325 85.0878608496184 78.0531310328416)" fill="#325760" stroke-opacity="0" stroke="#000000" stroke-width="0" stroke-linecap="square" stroke-linejoin="bevel" d="M2.54407 0C1.99274 0.395691 1.14066 0.746704 0.288544 1.09766C0.192352 0.778504 0.096161 0.459412 0 0.140259C0.747742 0.078613 1.49551 0.016968 2.54407 0Z" sodipodi:nodetypes="cccc"/><path id="shape39" transform="matrix(0.559316347223775 0 0 0.545040490568325 88.5007012523221 78.7172940733985)" fill="#325760" stroke-opacity="0" stroke="#000000" stroke-width="0" stroke-linecap="square" stroke-linejoin="bevel" d="M1.59253 0.708567C0.880279 0.688975 0.44635 0.619822 0.01239 0.55073C0.00827 0.367686 0.00412 0.184702 0 0.00165775C0.672088 0.00165775 1.34451 -0.00725325 2.01581 0.0162447C2.07941 0.0184427 2.20844 0.250742 2.17938 0.328562C2.13071 0.458933 1.9791 0.550852 1.59253 0.708567Z" sodipodi:nodetypes="cccccc"/>
</svg>
